#!OML:ASF H:\ColoradoDance\Project 1\Capture day 1\Session 8\male.ASF
:FULLY-SPECIFIED
:DEGREES
76
upperback -2.634000 -1.721400 -0.387301
rfoot -13.587200 8.805800
lradius 21.180799
lthumb -0.510789 57.550301
rradius 24.901501
lwrist -13.393500
rhand -38.033298 0.233652
rhumerus -56.490898 -17.871201 -54.962399
lowerneck -4.144340 1.129400 4.952640
lhand -27.093901 27.571100
ltibia 31.539400
head 1.713860 0.657722 -2.292990
rwrist 9.260750
lfingers 7.125020
rtoes 0.997821
lowerback 0.612288 -1.252190 -1.162500
rfingers 7.125020
lclavicle -0.000000 -0.000000
upperneck 2.895260 1.398870 -4.591180
rfemur -24.918200 13.283100 18.946400
thorax -3.024540 -0.841329 0.308887
rclavicle -0.000000 -0.000000
rtibia 34.116600
lfoot -17.046700 14.985300
lhumerus -53.984299 19.042801 47.089298
rthumb -11.071400 -389.454010
root -28.063801 19.649700 20.879000 1087.689941 -49.630199 357.923004
ltoes 3.525280
lfemur -19.684099 -5.896980 -11.795300
77
upperback -3.067660 -2.354410 1.013930
rfoot -17.400700 -0.313445
lradius 22.776800
lthumb 4.178640 58.256401
rradius 22.146099
lwrist -13.250000
rhand -29.881701 1.221100
rhumerus -60.692501 -19.341900 -63.196098
lowerneck -4.674260 1.894380 4.492190
lhand -22.238300 28.317699
ltibia 31.866301
head 2.980320 1.194330 -2.577270
rwrist 13.511500
lfingers 7.125020
rtoes -5.917160
lowerback 0.376178 -1.778290 0.467435
rfingers 7.125020
lclavicle -0.000000 -0.000000
upperneck 6.165640 2.586540 -5.720870
rfemur -23.036699 17.571100 16.911301
thorax -3.337650 -1.180190 0.857666
rclavicle -0.000000 -0.000000
rtibia 36.302601
lfoot -15.309000 11.673300
lhumerus -49.664398 15.591900 55.845200
rthumb -3.203200 -388.734985
root -27.934799 19.526899 21.864799 1087.719971 -46.740898 357.459991
ltoes 0.489489
lfemur -18.906200 -4.916780 -13.490400
78
upperback -2.249450 -4.263990 -0.018082
rfoot -3.999990 3.792030
lradius 28.859501
lthumb 4.473260 60.224400
rradius 25.632099
lwrist -9.689260
rhand -19.465000 1.469730
rhumerus -61.560501 -13.321700 -69.683800
lowerneck -6.336520 -3.368330 0.928953
lhand -21.933201 30.291700
ltibia 44.995899
head 4.565080 -2.282360 -2.413510
rwrist 10.187000
lfingers 7.125020
rtoes -2.082970
lowerback 2.961260 -3.141480 -1.383230
rfingers 7.125020
lclavicle -0.000000 0.000000
upperneck 12.291200 -3.880830 -6.616140
rfemur -34.791698 5.575280 14.081900
thorax -3.875590 -2.085280 1.017970
rclavicle -0.000000 0.000000
rtibia 66.823997
lfoot -18.197100 -5.649340
lhumerus -37.617199 3.714560 64.014503
rthumb 6.856320 -388.398987
root -27.451300 18.719801 22.515699 1079.880005 -19.651400 365.036987
ltoes 1.248080
lfemur -24.419300 -10.557000 -24.476299
79
upperback -1.217580 -3.824180 0.768197
rfoot 19.109699 16.578199
lradius 31.991899
lthumb 10.221600 61.768200
rradius 20.317400
lwrist -3.984460
rhand -31.545200 -2.776720
rhumerus -55.655701 -11.393900 -54.423000
lowerneck -6.151680 -5.202730 -0.429831
lhand -15.977800 32.036499
ltibia 51.607601
head 4.562890 -3.464300 -1.651470
rwrist 14.160600
lfingers 7.125020
rtoes -18.019300
lowerback 6.784240 -2.805970 -1.375050
rfingers 7.125020
lclavicle -0.000000 -0.000000
upperneck 10.813400 -6.555050 -3.968760
rfemur -61.132599 -0.534551 28.189100
thorax -4.922820 -1.841830 1.981080
rclavicle -0.000000 -0.000000
rtibia 43.002701
lfoot -20.166401 -7.322020
lhumerus -25.899000 -4.171980 65.445297
rthumb -4.809560 -392.701996
root -27.224899 18.346001 22.499300 1078.719971 -16.331301 363.884003
ltoes 0.138855
lfemur -26.615601 -7.899250 -25.009600
80
upperback -1.295240 -1.429120 1.384990
rfoot 23.151800 -2.581660
lradius 26.041300
lthumb 15.065500 59.422001
rradius 22.180300
lwrist -10.781700
rhand -36.731602 -7.233980
rhumerus -37.665298 4.774260 -64.565102
lowerneck -4.746910 -9.853100 -5.815600
lhand -10.953300 29.990200
ltibia 45.724201
head 5.237060 -6.591510 0.522284
rwrist 15.546200
lfingers 7.125020
rtoes -22.991501
lowerback 7.202780 -1.180750 0.823755
rfingers 7.125020
lclavicle 0.000000 -0.000000
upperneck 13.231600 -13.022700 1.346970
rfemur -67.091202 -9.277080 16.849100
thorax -5.374810 -0.709692 1.144970
rclavicle 0.000000 -0.000000
rtibia 36.948799
lfoot -14.804200 -6.150090
lhumerus -20.911100 -4.515510 64.077103
rthumb -9.815740 -396.984985
root -27.063900 18.763599 21.566299 1081.000000 -24.846399 362.447998
ltoes 1.153880
lfemur -28.681999 0.986758 -22.107401
81
upperback -1.867040 1.642020 0.390809
rfoot -35.082001 -22.407700
lradius 26.006201
lthumb 26.081100 61.954102
rradius 30.269300
lwrist -7.329770
rhand -22.466700 -28.438200
rhumerus -24.361500 17.445801 -66.352203
lowerneck -2.184400 -17.750299 -3.668400
lhand 0.512391 33.724800
ltibia 47.308498
head 5.287910 -11.975700 0.167342
rwrist 8.869200
lfingers 7.125020
rtoes 45.196499
lowerback 6.282000 1.057640 2.509780
rfingers 7.125020
lclavicle 0.000000 -0.000000
upperneck 13.362200 -24.399799 3.449530
rfemur -29.476801 8.451830 -19.430700
thorax -5.408190 0.733537 -1.180170
rclavicle 0.000000 -0.000000
rtibia 24.015200
lfoot -14.415500 2.815990
lhumerus -35.890999 0.081822 57.212101
rthumb 3.958150 -418.381012
root -27.489300 18.642900 20.433500 1083.130005 -39.318600 361.028015
ltoes -3.807910
lfemur -31.786900 5.851130 -15.931400
82
upperback -2.504210 3.363790 -1.891690
rfoot 54.303699 11.182800
lradius 18.013399
lthumb 16.081800 24.699100
rradius 33.860600
lwrist -28.555201
rhand -22.896400 -48.355598
rhumerus -21.837999 16.131500 -63.120499
lowerneck -1.750900 -15.569100 -2.644480
lhand -9.898030 -4.653550
ltibia 35.101700
head 4.894690 -10.632800 0.846503
rwrist 4.493390
lfingers 7.125020
rtoes 12.965600
lowerback 5.987140 2.705800 -1.561240
rfingers 7.125020
lclavicle 0.000000 0.000000
upperneck 12.314300 -21.781401 5.331140
rfemur -28.084499 -21.795500 -3.529530
thorax -5.941300 1.674350 -1.465460
rclavicle 0.000000 0.000000
rtibia 29.066700
lfoot -11.948800 24.797300
lhumerus -55.105999 20.033100 39.855301
rthumb 3.543140 -438.306000
root -28.698200 18.677601 18.040001 1074.510010 -75.174004 371.399994
ltoes -1.813970
lfemur -16.599300 12.451600 -6.214880
83
upperback -3.091220 -0.101483 0.966033
rfoot -12.969500 -29.124800
lradius 10.750700
lthumb -19.284599 30.709801
rradius 35.627399
lwrist -33.259800
rhand -25.572901 -18.235300
rhumerus -30.620800 2.347790 -43.642899
lowerneck -3.838560 -10.384100 -7.097610
lhand -46.560299 1.646000
ltibia 39.712002
head 6.827290 -7.757730 3.749350
rwrist 5.233470
lfingers 7.125020
rtoes 6.621600
lowerback 5.182790 -0.318603 3.916900
rfingers 7.125020
lclavicle -0.000000 0.000000
upperneck 15.083500 -16.283100 12.389900
rfemur -44.983501 -28.572701 35.509201
thorax -6.139660 -0.206893 -1.178150
rclavicle -0.000000 0.000000
rtibia 47.974098
lfoot 9.937660 33.679298
lhumerus -56.778500 24.391500 37.787399
rthumb 0.958268 -408.213013
root -30.665600 18.608200 13.706800 894.726990 -58.505600 552.526978
ltoes 12.414300
lfemur 3.345980 -7.569660 4.817130
84
upperback -1.811870 -2.676170 2.587790
rfoot -20.989799 -18.926500
lradius 10.046000
lthumb 1.184790 55.163399
rradius 26.525801
lwrist -18.415701
rhand -14.549900 -12.266900
rhumerus -41.487801 -5.062160 -23.626600
lowerneck -8.208480 -8.398440 -1.541470
lhand -25.338301 25.186899
ltibia 77.399300
head 7.681540 -6.400930 0.049574
rwrist 6.938850
lfingers 7.125020
rtoes -0.879275
lowerback 4.346170 -2.231080 4.984310
rfingers 7.125020
lclavicle 0.000000 -0.000000
upperneck 19.520500 -13.033400 3.200670
rfemur -29.780800 -5.015240 35.730202
thorax -4.420440 -1.474320 0.112761
rclavicle 0.000000 -0.000000
rtibia 47.658401
lfoot -13.061100 24.832600
lhumerus -32.780399 12.301800 59.187199
rthumb 11.598800 -401.925995
root -32.142200 18.807199 10.451700 902.315002 -21.328699 547.221008
ltoes -17.986300
lfemur -35.948601 -4.362070 -8.549200
85
upperback -2.207630 -3.595690 1.493700
rfoot -23.093000 -5.811050
lradius 22.709000
lthumb 9.042450 53.016201
rradius 24.072701
lwrist -14.221000
rhand -17.018499 -3.373540
rhumerus -52.151402 -7.057720 -28.610701
lowerneck -8.172500 -1.454650 4.781290
lhand -17.199900 23.230000
ltibia 36.329300
head 6.982930 -0.503282 -1.848450
rwrist -6.919940
lfingers 7.125020
rtoes -13.081600
lowerback 1.565320 -2.844760 3.445380
rfingers 7.125020
lclavicle -0.000000 -0.000000
upperneck 18.705601 -1.669480 -2.902120
rfemur -17.580500 21.656401 19.266100
thorax -3.267270 -1.832790 -0.228207
rclavicle -0.000000 -0.000000
rtibia 35.681801
lfoot 9.978320 -7.975610
lhumerus -33.561901 4.845200 53.614601
rthumb 9.217490 -393.152008
root -33.846199 19.466499 6.987340 909.796997 23.613800 540.598022
ltoes -56.248501
lfemur -41.855701 -3.357140 -2.171760
